<svg width="24" height="24" viewBox="0 0 24 24" fill="none" xmlns="http://www.w3.org/2000/svg">
<path d="M14.5 12.5H13.25V8.52476L8.4466 7.56407C8.23354 7.52146 8.01679 7.5 7.79951 7.5C5.97724 7.5 4.5 8.97724 4.5 10.7995V13.75H2V10.7995C2 7.59653 4.59653 5 7.79951 5C8.18142 5 8.56239 5.03772 8.93689 5.11262L13.25 5.97525V2.5H14.5L19.5 7.5L14.5 12.5Z" fill="#212529"/>
<path d="M22 11.25V14.2005C22 17.4035 19.4035 20 16.2005 20C15.8186 20 15.4376 19.9623 15.0631 19.8874L10.75 19.0248V22.5H9.5L4.5 17.5L9.5 12.5H10.75V16.4752L15.5534 17.4359C15.7665 17.4785 15.9832 17.5 16.2005 17.5C18.0228 17.5 19.5 16.0228 19.5 14.2005V11.25H22Z" fill="#212529"/>
</svg>
