<svg width="20" height="20" viewBox="0 0 20 20" fill="none" xmlns="http://www.w3.org/2000/svg">
<path d="M3.84253 1.82373H15.9363V19.02H14.1613V11.1425H14.1438C14.0458 10.0819 13.5552 9.0962 12.7682 8.37856C11.9812 7.66092 10.9545 7.26311 9.8894 7.26311C8.82432 7.26311 7.79765 7.66092 7.01064 8.37856C6.22362 9.0962 5.73303 10.0819 5.63503 11.1425H5.61753V19.02H3.84253V1.82373Z" fill="white"/>
<path d="M0.625 4.2627L1.34625 6.70395H1.95625V16.5789C1.80927 16.5789 1.66829 16.6372 1.56425 16.7411C1.4602 16.8449 1.40158 16.9857 1.40125 17.1327V17.7989H1.29125C1.14427 17.7989 1.00329 17.8572 0.899247 17.9611C0.7952 18.0649 0.736581 18.2057 0.73625 18.3527V19.0189H6.94875V18.3527C6.94842 18.2057 6.8898 18.0649 6.78575 17.9611C6.68171 17.8572 6.54073 17.7989 6.39375 17.7989H6.28375V17.1327C6.28375 16.9855 6.22528 16.8443 6.12119 16.7403C6.01711 16.6362 5.87595 16.5777 5.72875 16.5777H5.0625V4.2627H0.625ZM14.2712 16.5777C14.1984 16.5777 14.1262 16.5921 14.0589 16.6199C13.9915 16.6478 13.9303 16.6887 13.8788 16.7403C13.8273 16.7918 13.7864 16.853 13.7585 16.9203C13.7306 16.9876 13.7162 17.0598 13.7162 17.1327V17.7989H13.6063C13.4593 17.7989 13.3183 17.8572 13.2142 17.9611C13.1102 18.0649 13.0516 18.2057 13.0513 18.3527V19.0189H19.2638V18.3527C19.2634 18.2057 19.2048 18.0649 19.1008 17.9611C18.9967 17.8572 18.8557 17.7989 18.7087 17.7989H18.5987V17.1327C18.5987 17.0598 18.5844 16.9876 18.5565 16.9203C18.5286 16.853 18.4877 16.7918 18.4362 16.7403C18.3847 16.6887 18.3235 16.6478 18.2561 16.6199C18.1888 16.5921 18.1166 16.5777 18.0438 16.5777V6.7027H18.6538L19.375 4.2627H14.9375V16.5777H14.2712Z" fill="white"/>
</svg>
