<svg width="56" height="56" viewBox="0 0 56 56" fill="none" xmlns="http://www.w3.org/2000/svg">
<g id="Frame">
<path id="Vector" d="M47.25 22.75V24.5C47.2463 27.461 46.1714 30.3207 44.2238 32.551C42.2761 34.7813 39.5873 36.2316 36.6537 36.6341C37.8512 38.1664 38.5011 40.0554 38.5 42V50.75C38.5 51.2142 38.3156 51.6593 37.9874 51.9875C37.6592 52.3157 37.2141 52.5 36.75 52.5H22.75C22.2859 52.5 21.8408 52.3157 21.5126 51.9875C21.1844 51.6593 21 51.2142 21 50.75V47.25H15.75C13.4294 47.25 11.2038 46.3282 9.56282 44.6872C7.92187 43.0463 7 40.8207 7 38.5C7 37.1076 6.44688 35.7723 5.46231 34.7877C4.47774 33.8032 3.14239 33.25 1.75 33.25C1.28587 33.25 0.840752 33.0657 0.512563 32.7375C0.184374 32.4093 0 31.9642 0 31.5C0 31.0359 0.184374 30.5908 0.512563 30.2626C0.840752 29.9344 1.28587 29.75 1.75 29.75C2.89907 29.75 4.03688 29.9764 5.09848 30.4161C6.16008 30.8558 7.12467 31.5003 7.93718 32.3128C8.7497 33.1254 9.39422 34.09 9.83395 35.1515C10.2737 36.2131 10.5 37.351 10.5 38.5C10.5 39.8924 11.0531 41.2278 12.0377 42.2123C13.0223 43.1969 14.3576 43.75 15.75 43.75H21V42C20.9989 40.0554 21.6488 38.1664 22.8463 36.6341C19.9127 36.2316 17.2239 34.7813 15.2762 32.551C13.3286 30.3207 12.2537 27.461 12.25 24.5V22.75C12.2718 20.5752 12.851 18.4422 13.9322 16.555C13.3973 14.8295 13.2257 13.0119 13.4283 11.2168C13.6308 9.42164 14.2031 7.68796 15.1091 6.12503C15.2627 5.85894 15.4837 5.63798 15.7498 5.48439C16.0159 5.33079 16.3177 5.24996 16.625 5.25003C18.6633 5.24576 20.6744 5.71829 22.4976 6.62987C24.3207 7.54145 25.9054 8.8668 27.125 10.5H32.375C33.5946 8.8668 35.1793 7.54145 37.0024 6.62987C38.8256 5.71829 40.8367 5.24576 42.875 5.25003C43.1823 5.24996 43.4841 5.33079 43.7502 5.48439C44.0163 5.63798 44.2373 5.85894 44.3909 6.12503C45.297 7.68792 45.8692 9.42171 46.0714 11.2169C46.2736 13.0121 46.1014 14.8297 45.5656 16.555C46.6489 18.4415 47.2289 20.5748 47.25 22.75Z" fill="white"/>
</g>
</svg>
