<svg width="20" height="20" viewBox="0 0 20 20" fill="none" xmlns="http://www.w3.org/2000/svg">
<g clip-path="url(#clip0_6377_2430)">
<path fill-rule="evenodd" clip-rule="evenodd" d="M0.122455 0.170705C0.189818 0.264581 1.74985 2.48237 3.58921 5.09912C5.42856 7.71586 7.12979 10.1358 7.36974 10.4768C7.60967 10.8177 7.80597 11.1035 7.80597 11.1119C7.80597 11.1203 7.71662 11.2279 7.60744 11.351C7.49824 11.4741 7.19066 11.8227 6.92396 12.1256C6.65725 12.4284 6.20764 12.9389 5.92481 13.2599C5.64201 13.581 5.14447 14.1459 4.81917 14.5154C4.49389 14.8849 3.90892 15.5492 3.51925 15.9916C2.31407 17.36 2.14015 17.5576 1.22273 18.6014C0.732861 19.1586 0.26311 19.6914 0.178858 19.7854C0.0946041 19.8794 0.0256638 19.9661 0.0256638 19.9781C0.0256638 19.9923 0.333359 20 0.892571 20H1.75946L2.71251 18.9153C3.2367 18.3185 3.75379 17.7313 3.86159 17.6101C4.0947 17.3483 5.87245 15.3279 6.02188 15.1551C6.07909 15.0889 6.16219 14.9948 6.20655 14.9459C6.25094 14.8969 6.60069 14.5 6.98379 14.0639C7.36687 13.6277 7.69085 13.2603 7.70369 13.2471C7.71654 13.2341 7.91935 13.0036 8.15438 12.7351C8.38941 12.4665 8.58897 12.2467 8.59784 12.2467C8.60672 12.2467 9.81405 13.954 11.2808 16.0407C12.7476 18.1275 13.9739 19.8717 14.0059 19.9169L14.064 19.999L17.0376 19.9995C19.483 19.9999 20.0093 19.9949 19.9999 19.9711C19.99 19.9457 18.5653 17.9161 14.9104 12.7203C12.2792 8.97983 11.9293 8.47717 11.9393 8.45168C11.9491 8.42688 12.3074 8.01746 14.6636 5.33959C15.0677 4.88024 15.6249 4.2467 15.9016 3.93171C16.1785 3.61674 16.4579 3.29956 16.5226 3.22688C16.5875 3.15419 16.928 2.76762 17.2795 2.36784C17.631 1.96806 18.2285 1.28876 18.6074 0.858304C18.9861 0.427841 19.31 0.0586346 19.327 0.0378196C19.3561 0.00220287 19.3066 0 18.4774 0H17.5969L17.2052 0.446035C16.684 1.03965 15.7418 2.11011 15.4743 2.4126C15.356 2.54625 15.2085 2.71422 15.1465 2.78586C15.0845 2.85749 14.9621 2.99593 14.8746 3.0935C14.7871 3.19108 14.346 3.69217 13.8944 4.20705C13.4429 4.72191 13.0672 5.14813 13.0596 5.15419C13.052 5.16024 12.9552 5.26986 12.8446 5.39781C12.651 5.62161 12.4539 5.84561 11.5502 6.86928C11.1535 7.31861 11.1331 7.33791 11.0997 7.29661C11.0805 7.27281 9.91794 5.62144 8.51636 3.6269L5.96802 0.000462469L2.98401 0.00022048L0 0L0.122455 0.170705ZM2.45144 1.35995C2.47385 1.39338 3.03138 2.17401 3.6904 3.09471C4.94028 4.84088 9.8518 11.7067 13.0105 16.1234C14.0199 17.5347 14.858 18.7019 14.873 18.7171C14.8946 18.7389 15.1885 18.7436 16.2464 18.7391L17.5923 18.7335L14.0702 13.8106C12.1332 11.103 9.32866 7.18283 7.83796 5.09912L5.12756 1.31058L3.76915 1.30489L2.41073 1.29921L2.45144 1.35995Z" fill="white"/>
</g>
<defs>
<clipPath id="clip0_6377_2430">
<rect width="20" height="20" fill="white"/>
</clipPath>
</defs>
</svg>
