<svg xmlns="http://www.w3.org/2000/svg" viewBox="0 0 32 32">
  <circle cx="16" cy="16" r="16" fill="#0A0B0D"/>
  <path
    fill="#FFFFFF"
    d="M23.2 19.4c-.3.3-.7.3-1 0-2.4-2.4-6.1-2.4-8.5 0-.3.3-.7.3-1 0l-2.7-2.8c-.3-.3-.3-.7 0-1 3.8-3.9 10-3.9 13.8 0 .3.3.3.7 0 1l-1.6 1.6z"
  />
  <path
    fill="#15C6FF"
    d="M14.6 22.3c-.2.2-.4.2-.6 0l-2.5-2.5c-.2-.2-.2-.4 0-.6 2.5-2.6 6.6-2.6 9.2 0 .2.2.2.4 0 .6l-1 1c-.2.2-.4.2-.6 0-1.2-1.3-3.3-1.3-4.5 0l-.2.2z"
  />
  <path
    fill="#4F7BFF"
    d="M11.1 24.8c-.1.1-.3.1-.4 0l-2.1-2.1c-.1-.1-.1-.3 0-.4 1.9-2 4.9-2 6.8 0 .1.1.1.3 0 .4l-1 1c-.1.1-.3.1-.4 0-.8-.8-2.1-.8-2.9 0l-.1.1z"
  />
</svg>
