<svg xmlns="http://www.w3.org/2000/svg" viewBox="0 0 24 24" fill="#181717">
  <path d="M12 .297c-6.63 0-12 5.373-12 12 0 5.303 3.438 9.8 8.205 11.385.6.113.82-.258.82-.577 0-.285-.01-1.04-.015-2.04-3.338.724-4.042-1.61-4.042-1.61-.546-1.387-1.333-1.757-1.333-1.757-1.089-.745.084-.729.084-.729 1.205.084 1.84 1.236 1.84 1.236 1.07 1.835 2.809 1.305 3.495.998.108-.776.42-1.305.763-1.605-2.665-.304-5.466-1.332-5.466-5.93 0-1.31.468-2.381 1.235-3.221-.135-.303-.54-1.524.105-3.176 0 0 1.005-.322 3.3 1.23a11.5 11.5 0 0 1 3.003-.404c1.02.004 2.045.138 3.003.404 2.28-1.552 3.285-1.23 3.285-1.23.645 1.652.24 2.873.12 3.176.765.84 1.23 1.911 1.23 3.221 0 4.61-2.805 5.623-5.475 5.921.435.372.81 1.102.81 2.222 0 1.606-.015 2.896-.015 3.286 0 .315.21.69.825.57C20.565 22.092 24 17.592 24 12.297 24 5.67 18.627.297 12 .297z"/>
</svg>
