<?xml version="1.0" encoding="UTF-8"?>
<svg width="220px" height="110px" viewBox="0 0 220 110" version="1.1" xmlns="http://www.w3.org/2000/svg" xmlns:xlink="http://www.w3.org/1999/xlink">
    <!-- Generator: Sketch 55.2 (78181) - https://sketchapp.com -->
    <title>Artboard Copy 6</title>
    <desc>Created with Sketch.</desc>
    <g id="Artboard-Copy-6" stroke="none" stroke-width="1" fill="none" fill-rule="evenodd">
        <path d="M152.577598,74 C153.846189,73.9573356 153.729288,72.6600491 153.737226,71.7026313 C154.569964,61.1565739 153.17004,55.5328295 152.961494,43.2599492 C152.877066,38.3217274 153.424768,37.0468577 150.977787,37.0663821 C147.402207,37.9001454 136.191987,35.0973123 136.060654,39.9422509 C135.820357,49.7666294 136.352184,59.6148711 136.526814,69.4421421 C136.819066,70.9766137 136.661034,73.7707693 138.610825,74 C138.611547,74 152.577598,74 152.577598,74 M90.3061408,74 C90.957634,73.996371 91.4627721,73.4324194 91.4123294,72.7697581 C90.5633279,61.5291935 92.6691358,50.6776613 91.7725334,39.2164516 C91.7185383,38.5291129 91.1473272,38 90.4716784,38 L74.9338855,38 C74.2852341,38 73.7474148,38.5153226 73.7069185,39.1765323 C73.03198,50.1717742 72.5609441,61.0683065 73.6344514,72.2014516 C73.6983929,72.8684677 74.1843486,73.4287903 74.8301581,73.55 M62.9612004,26.5264429 C63.2875039,26.5070654 98.6857038,24.3568866 116.769785,25.1929875 C117.506114,25.2267186 118.09575,25.8130658 118.132245,26.5515618 C118.623847,32.321017 118.273213,39.4799069 119.168401,45.0304688 C120.970226,46.0761332 123.692999,46.2928735 125.579262,44.99602 C126.208971,39.554546 125.877658,34.0463274 125.984279,28.5775814 C126.032939,25.5324516 126.236163,25.2288716 129.373255,25.2130826 C147.659845,25.273368 165.75609,24.9719411 184.052698,25.9759799 C184.610133,39.7490381 184.163612,53.2343054 184.640903,66.9714795 C184.769707,70.3546381 185.017297,73.7385144 184.999044,77.1209553 C184.956472,84.1269786 184.417642,84.6114148 177.553105,84.6839008 C162.66551,84.7477746 147.762172,85.3642645 132.883164,84.6803124 C126.946016,84.3717086 126.508798,84.114778 126.492339,79.2302262 C126.329903,71.1598786 126.941007,63.8050612 125.95995,55.6536155 C123.103363,55.8438015 120.817092,55.9952327 118.44209,56.153123 C118.374825,64.6971414 118.321157,72.7775366 119.031726,81.160794 C119.106146,84.1276963 118.521519,84.6867715 115.71717,84.6458636 C99.097161,84.4054397 82.4771523,84.1456384 65.8578591,83.8614359 C63.6002114,83.6741205 62.3229051,83.4114485 62.2720991,81.9466571 C62.6441995,72.7014621 64.2864504,65.0717721 62.685703,55.8244241 L45.3307959,55.8244241 C45.0409869,61.8371739 45.2463577,66.7525861 45.3150532,72.5320889 C45.2678251,75.0891941 44.7926815,75.4702839 42.3647262,75.5994669 C36.4347334,75.6202797 35.2225447,76.097539 35.2110954,69.5659042 C34.9928442,62.5204083 35.2289849,53.405114 35,46.6703749 C35.0465126,45.8156142 35.7957225,45.2493621 36.6372419,45.2716103 C37.3356458,45.2364438 62.3894538,45.2716103 62.3894538,45.2716103 C62.722913,44.9895608 61.6431062,26.0771732 62.9612004,26.5264429" id="Fill-1" fill="#000000"></path>
    </g>
</svg>
