<?xml version="1.0" encoding="UTF-8"?>
<svg width="476px" height="476px" viewBox="0 0 476 476" version="1.1" xmlns="http://www.w3.org/2000/svg" xmlns:xlink="http://www.w3.org/1999/xlink">
    <!-- Generator: Sketch 55.2 (78181) - https://sketchapp.com -->
    <title>Artboard Copy 2</title>
    <desc>Created with Sketch.</desc>
    <g id="Artboard-Copy-2" stroke="none" stroke-width="1" fill="none" fill-rule="evenodd">
        <path d="M343.524848,285 C346.625869,284.895069 346.340109,281.704445 346.359513,279.349715 C348.395109,253.412114 344.97305,239.580743 344.463269,209.396091 C344.256887,197.250735 345.595723,194.115245 339.614175,194.163264 C330.873812,196.213871 303.470877,189.320417 303.149839,201.236347 C302.562444,225.399007 303.862474,249.620359 304.289349,273.790133 C305.003748,277.564104 304.617444,284.436216 309.383632,285 C309.385396,285 343.524848,285 343.524848,285 M187.810799,285 C189.422398,284.991129 190.671958,283.612581 190.547178,281.992742 C188.447003,254.515806 193.65614,227.989839 191.438214,199.973548 C191.304647,198.293387 189.891642,197 188.22029,197 L149.784452,197 C148.179883,197 146.849479,198.259677 146.749303,199.875968 C145.079708,226.753226 143.914507,253.389194 146.570042,280.603548 C146.728214,282.234032 147.930322,283.60371 149.527861,283.9 M121.15781,167.765226 C121.964872,167.717428 209.516978,162.413654 254.245223,164.476036 C256.066423,164.559239 257.524799,166.005562 257.615062,167.827186 C258.830965,182.058509 257.963727,199.717104 260.177839,213.40849 C264.634381,215.987795 271.36875,216.522421 276.034137,213.323516 C277.591625,199.901213 276.772174,186.314274 277.035885,172.824701 C277.156236,165.313381 277.658881,164.56455 285.418006,164.525604 C330.647125,164.674308 375.405458,163.930788 420.659356,166.407417 C422.038087,200.380961 420.933686,233.64462 422.114192,267.529649 C422.432769,275.874774 423.045145,284.221669 423,292.565023 C422.894706,309.846547 421.561991,311.04149 404.583594,311.220289 C367.761374,311.377844 330.900217,312.898519 294.099236,311.211437 C279.414595,310.450215 278.333202,309.816452 278.292495,297.767891 C277.890734,277.861034 279.402206,259.719151 276.975709,239.612251 C269.910374,240.081377 264.255628,240.454907 258.381418,240.84437 C258.215049,261.919616 258.082309,281.851257 259.839793,302.529959 C260.02386,309.848318 258.577874,311.22737 251.641739,311.126464 C210.534655,310.533418 169.427572,309.892575 128.322258,309.191542 C122.738307,308.729497 119.579083,308.081573 119.453422,304.468421 C120.373756,281.663607 124.435616,262.843704 120.476409,240.033579 L77.5516648,240.033579 C76.834866,254.865029 77.3428197,266.989712 77.5127276,281.245819 C77.3959159,287.553346 76.2207198,288.493367 70.2155388,288.812018 C55.5485965,288.863357 52.5504307,290.040596 52.5221127,273.92923 C51.9823013,256.55034 52.5663595,234.065948 52,217.453591 C52.1150418,215.345182 53.9680994,213.948427 56.0494707,214.003305 C57.7768673,213.916561 119.743681,214.003305 119.743681,214.003305 C120.568442,213.307583 117.897703,166.657027 121.15781,167.765226" id="Fill-1" fill="#000000"></path>
    </g>
</svg>
