<svg width="54" height="50" viewBox="0 0 54 50" fill="none" xmlns="http://www.w3.org/2000/svg">
<path d="M30.375 15H10.125V18.3333H30.375V15Z" fill="#D53C5E"/>
<path d="M54 15H33.75V18.3333H54V15Z" fill="#D53C5E"/>
<path d="M13.5 18.3333H10.125V21.6667H13.5V18.3333Z" fill="#D53C5E"/>
<path d="M20.25 18.3333H13.5V21.6667H20.25V18.3333Z" fill="white"/>
<path d="M27 18.3333H20.25V21.6667H27V18.3333Z" fill="black"/>
<path d="M30.375 18.3333H27V21.6667H30.375V18.3333Z" fill="#D53C5E"/>
<path d="M37.125 18.3333H33.75V21.6667H37.125V18.3333Z" fill="#D53C5E"/>
<path d="M43.875 18.3333H37.125V21.6667H43.875V18.3333Z" fill="white"/>
<path d="M50.625 18.3333H43.875V21.6667H50.625V18.3333Z" fill="black"/>
<path d="M54 18.3333H50.625V21.6667H54V18.3333Z" fill="#D53C5E"/>
<path d="M13.5 21.6667H0V25H13.5V21.6667Z" fill="#D53C5E"/>
<path d="M20.25 21.6667H13.5V25H20.25V21.6667Z" fill="white"/>
<path d="M27 21.6667H20.25V25H27V21.6667Z" fill="black"/>
<path d="M37.125 21.6667H27V25H37.125V21.6667Z" fill="#D53C5E"/>
<path d="M43.875 21.6667H37.125V25H43.875V21.6667Z" fill="white"/>
<path d="M50.625 21.6667H43.875V25H50.625V21.6667Z" fill="black"/>
<path d="M54 21.6667H50.625V25H54V21.6667Z" fill="#D53C5E"/>
<path d="M3.375 25H0V28.3333H3.375V25Z" fill="#D53C5E"/>
<path d="M13.5 25H10.125V28.3333H13.5V25Z" fill="#D53C5E"/>
<path d="M20.25 25H13.5V28.3333H20.25V25Z" fill="white"/>
<path d="M27 25H20.25V28.3333H27V25Z" fill="black"/>
<path d="M30.375 25H27V28.3333H30.375V25Z" fill="#D53C5E"/>
<path d="M37.125 25H33.75V28.3333H37.125V25Z" fill="#D53C5E"/>
<path d="M43.875 25H37.125V28.3333H43.875V25Z" fill="white"/>
<path d="M50.625 25H43.875V28.3333H50.625V25Z" fill="black"/>
<path d="M54 25H50.625V28.3333H54V25Z" fill="#D53C5E"/>
<path d="M3.375 28.3333H0V31.6667H3.375V28.3333Z" fill="#D53C5E"/>
<path d="M13.5 28.3333H10.125V31.6667H13.5V28.3333Z" fill="#D53C5E"/>
<path d="M20.25 28.3333H13.5V31.6667H20.25V28.3333Z" fill="white"/>
<path d="M27 28.3333H20.25V31.6667H27V28.3333Z" fill="black"/>
<path d="M30.375 28.3333H27V31.6667H30.375V28.3333Z" fill="#D53C5E"/>
<path d="M37.125 28.3333H33.75V31.6667H37.125V28.3333Z" fill="#D53C5E"/>
<path d="M43.875 28.3333H37.125V31.6667H43.875V28.3333Z" fill="white"/>
<path d="M50.625 28.3333H43.875V31.6667H50.625V28.3333Z" fill="black"/>
<path d="M54 28.3333H50.625V31.6667H54V28.3333Z" fill="#D53C5E"/>
<path d="M30.375 31.6667H10.125V35H30.375V31.6667Z" fill="#D53C5E"/>
<path d="M54 31.6667H33.75V35H54V31.6667Z" fill="#D53C5E"/>
</svg>
