<svg width="320" height="320" viewBox="0 0 320 320" xmlns="http://www.w3.org/2000/svg" shape-rendering="crispEdges"><rect width="100%" height="100%" fill="#d5d7e1" /><rect width="140" height="10" x="90" y="210" fill="#f98f30" /><rect width="140" height="10" x="90" y="220" fill="#f98f30" /><rect width="140" height="10" x="90" y="230" fill="#f98f30" /><rect width="140" height="10" x="90" y="240" fill="#f98f30" /><rect width="20" height="10" x="90" y="250" fill="#f98f30" /><rect width="110" height="10" x="120" y="250" fill="#f98f30" /><rect width="20" height="10" x="90" y="260" fill="#f98f30" /><rect width="110" height="10" x="120" y="260" fill="#f98f30" /><rect width="20" height="10" x="90" y="270" fill="#f98f30" /><rect width="110" height="10" x="120" y="270" fill="#f98f30" /><rect width="20" height="10" x="90" y="280" fill="#f98f30" /><rect width="110" height="10" x="120" y="280" fill="#f98f30" /><rect width="20" height="10" x="90" y="290" fill="#f98f30" /><rect width="110" height="10" x="120" y="290" fill="#f98f30" /><rect width="20" height="10" x="90" y="300" fill="#f98f30" /><rect width="110" height="10" x="120" y="300" fill="#f98f30" /><rect width="20" height="10" x="90" y="310" fill="#f98f30" /><rect width="110" height="10" x="120" y="310" fill="#f98f30" /><rect width="40" height="10" x="110" y="210" fill="#f98f30" /><rect width="50" height="10" x="180" y="210" fill="#f98f30" /><rect width="40" height="10" x="110" y="220" fill="#f98f30" /><rect width="50" height="10" x="180" y="220" fill="#f98f30" /><rect width="40" height="10" x="110" y="230" fill="#f98f30" /><rect width="50" height="10" x="180" y="230" fill="#f98f30" /><rect width="40" height="10" x="110" y="240" fill="#f98f30" /><rect width="50" height="10" x="180" y="240" fill="#f98f30" /><rect width="30" height="10" x="120" y="250" fill="#fdf8ff" /><rect width="50" height="10" x="180" y="250" fill="#fdf8ff" /><rect width="30" height="10" x="120" y="260" fill="#fdf8ff" /><rect width="50" height="10" x="180" y="260" fill="#fdf8ff" /><rect width="30" height="10" x="120" y="270" fill="#fdf8ff" /><rect width="50" height="10" x="180" y="270" fill="#fdf8ff" /><rect width="30" height="10" x="120" y="280" fill="#fdf8ff" /><rect width="50" height="10" x="180" y="280" fill="#fdf8ff" /><rect width="30" height="10" x="120" y="290" fill="#f98f30" /><rect width="50" height="10" x="180" y="290" fill="#f98f30" /><rect width="30" height="10" x="120" y="300" fill="#f98f30" /><rect width="50" height="10" x="180" y="300" fill="#f98f30" /><rect width="30" height="10" x="120" y="310" fill="#f98f30" /><rect width="50" height="10" x="180" y="310" fill="#f98f30" /><rect width="40" height="10" x="140" y="40" fill="#903707" /><rect width="10" height="10" x="130" y="50" fill="#903707" /><rect width="10" height="10" x="180" y="50" fill="#903707" /><rect width="180" height="10" x="70" y="60" fill="#909b0e" /><rect width="40" height="10" x="70" y="70" fill="#909b0e" /><rect width="100" height="10" x="110" y="70" fill="#c16710" /><rect width="40" height="10" x="210" y="70" fill="#909b0e" /><rect width="160" height="10" x="80" y="80" fill="#909b0e" /><rect width="20" height="10" x="80" y="90" fill="#535a15" /><rect width="10" height="10" x="100" y="90" fill="#909b0e" /><rect width="10" height="10" x="110" y="90" fill="#903707" /><rect width="80" height="10" x="120" y="90" fill="#909b0e" /><rect width="10" height="10" x="200" y="90" fill="#903707" /><rect width="10" height="10" x="210" y="90" fill="#909b0e" /><rect width="20" height="10" x="220" y="90" fill="#535a15" /><rect width="20" height="10" x="80" y="100" fill="#909b0e" /><rect width="10" height="10" x="100" y="100" fill="#535a15" /><rect width="10" height="10" x="110" y="100" fill="#903707" /><rect width="80" height="10" x="120" y="100" fill="#535a15" /><rect width="10" height="10" x="200" y="100" fill="#903707" /><rect width="10" height="10" x="210" y="100" fill="#535a15" /><rect width="20" height="10" x="220" y="100" fill="#909b0e" /><rect width="10" height="10" x="70" y="110" fill="#552d1d" /><rect width="30" height="10" x="80" y="110" fill="#909b0e" /><rect width="10" height="10" x="110" y="110" fill="#903707" /><rect width="80" height="10" x="120" y="110" fill="#909b0e" /><rect width="10" height="10" x="200" y="110" fill="#903707" /><rect width="30" height="10" x="210" y="110" fill="#909b0e" /><rect width="10" height="10" x="240" y="110" fill="#552d1d" /><rect width="10" height="10" x="70" y="120" fill="#552d1d" /><rect width="30" height="10" x="80" y="120" fill="#909b0e" /><rect width="10" height="10" x="110" y="120" fill="#903707" /><rect width="80" height="10" x="120" y="120" fill="#909b0e" /><rect width="10" height="10" x="200" y="120" fill="#903707" /><rect width="30" height="10" x="210" y="120" fill="#909b0e" /><rect width="10" height="10" x="240" y="120" fill="#552d1d" /><rect width="10" height="10" x="70" y="130" fill="#552d1d" /><rect width="30" height="10" x="80" y="130" fill="#909b0e" /><rect width="10" height="10" x="110" y="130" fill="#903707" /><rect width="80" height="10" x="120" y="130" fill="#909b0e" /><rect width="10" height="10" x="200" y="130" fill="#903707" /><rect width="30" height="10" x="210" y="130" fill="#909b0e" /><rect width="10" height="10" x="250" y="130" fill="#552d1d" /><rect width="10" height="10" x="60" y="140" fill="#552d1d" /><rect width="30" height="10" x="80" y="140" fill="#909b0e" /><rect width="10" height="10" x="110" y="140" fill="#903707" /><rect width="80" height="10" x="120" y="140" fill="#909b0e" /><rect width="10" height="10" x="200" y="140" fill="#903707" /><rect width="30" height="10" x="210" y="140" fill="#909b0e" /><rect width="10" height="10" x="250" y="140" fill="#552d1d" /><rect width="10" height="10" x="60" y="150" fill="#552d1d" /><rect width="30" height="10" x="80" y="150" fill="#909b0e" /><rect width="10" height="10" x="110" y="150" fill="#903707" /><rect width="80" height="10" x="120" y="150" fill="#909b0e" /><rect width="10" height="10" x="200" y="150" fill="#903707" /><rect width="30" height="10" x="210" y="150" fill="#909b0e" /><rect width="10" height="10" x="250" y="150" fill="#552d1d" /><rect width="10" height="10" x="60" y="160" fill="#552d1d" /><rect width="30" height="10" x="80" y="160" fill="#909b0e" /><rect width="10" height="10" x="110" y="160" fill="#903707" /><rect width="80" height="10" x="120" y="160" fill="#909b0e" /><rect width="10" height="10" x="200" y="160" fill="#903707" /><rect width="30" height="10" x="210" y="160" fill="#909b0e" /><rect width="10" height="10" x="250" y="160" fill="#552d1d" /><rect width="10" height="10" x="60" y="170" fill="#552d1d" /><rect width="30" height="10" x="80" y="170" fill="#909b0e" /><rect width="10" height="10" x="110" y="170" fill="#903707" /><rect width="80" height="10" x="120" y="170" fill="#909b0e" /><rect width="10" height="10" x="200" y="170" fill="#903707" /><rect width="30" height="10" x="210" y="170" fill="#909b0e" /><rect width="10" height="10" x="250" y="170" fill="#552d1d" /><rect width="10" height="10" x="60" y="180" fill="#552d1d" /><rect width="20" height="10" x="80" y="180" fill="#909b0e" /><rect width="10" height="10" x="100" y="180" fill="#903707" /><rect width="10" height="10" x="110" y="180" fill="#c16710" /><rect width="10" height="10" x="120" y="180" fill="#903707" /><rect width="10" height="10" x="130" y="180" fill="#909b0e" /><rect width="10" height="10" x="140" y="180" fill="#535a15" /><rect width="10" height="10" x="150" y="180" fill="#909b0e" /><rect width="20" height="10" x="160" y="180" fill="#535a15" /><rect width="10" height="10" x="180" y="180" fill="#909b0e" /><rect width="10" height="10" x="190" y="180" fill="#903707" /><rect width="10" height="10" x="200" y="180" fill="#c16710" /><rect width="10" height="10" x="210" y="180" fill="#903707" /><rect width="20" height="10" x="220" y="180" fill="#909b0e" /><rect width="10" height="10" x="250" y="180" fill="#552d1d" /><rect width="10" height="10" x="50" y="190" fill="#552d1d" /><rect width="20" height="10" x="80" y="190" fill="#909b0e" /><rect width="30" height="10" x="100" y="190" fill="#903707" /><rect width="20" height="10" x="130" y="190" fill="#909b0e" /><rect width="10" height="10" x="150" y="190" fill="#535a15" /><rect width="30" height="10" x="160" y="190" fill="#909b0e" /><rect width="30" height="10" x="190" y="190" fill="#903707" /><rect width="20" height="10" x="220" y="190" fill="#909b0e" /><rect width="10" height="10" x="250" y="190" fill="#552d1d" /><rect width="10" height="10" x="50" y="200" fill="#552d1d" /><rect width="140" height="10" x="90" y="200" fill="#909b0e" /><rect width="10" height="10" x="250" y="200" fill="#552d1d" /><rect width="10" height="10" x="50" y="210" fill="#552d1d" /><rect width="20" height="10" x="70" y="210" fill="#552d1d" /><rect width="10" height="10" x="230" y="210" fill="#552d1d" /><rect width="10" height="10" x="250" y="210" fill="#552d1d" /><rect width="10" height="10" x="60" y="220" fill="#552d1d" /><rect width="10" height="10" x="240" y="220" fill="#552d1d" /><rect width="60" height="10" x="100" y="110" fill="#2b83f6" /><rect width="60" height="10" x="170" y="110" fill="#2b83f6" /><rect width="10" height="10" x="100" y="120" fill="#2b83f6" /><rect width="20" height="10" x="110" y="120" fill="#ffffff" /><rect width="20" height="10" x="130" y="120" fill="#000000" /><rect width="10" height="10" x="150" y="120" fill="#2b83f6" /><rect width="10" height="10" x="170" y="120" fill="#2b83f6" /><rect width="20" height="10" x="180" y="120" fill="#ffffff" /><rect width="20" height="10" x="200" y="120" fill="#000000" /><rect width="10" height="10" x="220" y="120" fill="#2b83f6" /><rect width="40" height="10" x="70" y="130" fill="#2b83f6" /><rect width="20" height="10" x="110" y="130" fill="#ffffff" /><rect width="20" height="10" x="130" y="130" fill="#000000" /><rect width="30" height="10" x="150" y="130" fill="#2b83f6" /><rect width="20" height="10" x="180" y="130" fill="#ffffff" /><rect width="20" height="10" x="200" y="130" fill="#000000" /><rect width="10" height="10" x="220" y="130" fill="#2b83f6" /><rect width="10" height="10" x="70" y="140" fill="#2b83f6" /><rect width="10" height="10" x="100" y="140" fill="#2b83f6" /><rect width="20" height="10" x="110" y="140" fill="#ffffff" /><rect width="20" height="10" x="130" y="140" fill="#000000" /><rect width="10" height="10" x="150" y="140" fill="#2b83f6" /><rect width="10" height="10" x="170" y="140" fill="#2b83f6" /><rect width="20" height="10" x="180" y="140" fill="#ffffff" /><rect width="20" height="10" x="200" y="140" fill="#000000" /><rect width="10" height="10" x="220" y="140" fill="#2b83f6" /><rect width="10" height="10" x="70" y="150" fill="#2b83f6" /><rect width="10" height="10" x="100" y="150" fill="#2b83f6" /><rect width="20" height="10" x="110" y="150" fill="#ffffff" /><rect width="20" height="10" x="130" y="150" fill="#000000" /><rect width="10" height="10" x="150" y="150" fill="#2b83f6" /><rect width="10" height="10" x="170" y="150" fill="#2b83f6" /><rect width="20" height="10" x="180" y="150" fill="#ffffff" /><rect width="20" height="10" x="200" y="150" fill="#000000" /><rect width="10" height="10" x="220" y="150" fill="#2b83f6" /><rect width="60" height="10" x="100" y="160" fill="#2b83f6" /><rect width="60" height="10" x="170" y="160" fill="#2b83f6" /></svg>