<svg width="25" height="24" viewBox="0 0 25 24" fill="none" xmlns="http://www.w3.org/2000/svg">
<g id="Frame">
<path id="Vector" d="M23.584 14.25C23.584 14.4489 23.5049 14.6397 23.3643 14.7803C23.2236 14.921 23.0329 15 22.834 15H21.334V16.5C21.334 16.6989 21.2549 16.8897 21.1143 17.0303C20.9736 17.171 20.7829 17.25 20.584 17.25C20.385 17.25 20.1943 17.171 20.0536 17.0303C19.913 16.8897 19.834 16.6989 19.834 16.5V15H18.334C18.1351 15 17.9443 14.921 17.8036 14.7803C17.663 14.6397 17.584 14.4489 17.584 14.25C17.584 14.0511 17.663 13.8603 17.8036 13.7197C17.9443 13.579 18.1351 13.5 18.334 13.5H19.834V12C19.834 11.8011 19.913 11.6103 20.0536 11.4697C20.1943 11.329 20.385 11.25 20.584 11.25C20.7829 11.25 20.9736 11.329 21.1143 11.4697C21.2549 11.6103 21.334 11.8011 21.334 12V13.5H22.834C23.0329 13.5 23.2236 13.579 23.3643 13.7197C23.5049 13.8603 23.584 14.0511 23.584 14.25ZM5.58396 6.75H7.08396V8.25C7.08396 8.44891 7.16298 8.63968 7.30363 8.78033C7.44429 8.92098 7.63505 9 7.83396 9C8.03288 9 8.22364 8.92098 8.36429 8.78033C8.50495 8.63968 8.58396 8.44891 8.58396 8.25V6.75H10.084C10.2829 6.75 10.4736 6.67098 10.6143 6.53033C10.7549 6.38968 10.834 6.19891 10.834 6C10.834 5.80109 10.7549 5.61032 10.6143 5.46967C10.4736 5.32902 10.2829 5.25 10.084 5.25H8.58396V3.75C8.58396 3.55109 8.50495 3.36032 8.36429 3.21967C8.22364 3.07902 8.03288 3 7.83396 3C7.63505 3 7.44429 3.07902 7.30363 3.21967C7.16298 3.36032 7.08396 3.55109 7.08396 3.75V5.25H5.58396C5.38505 5.25 5.19429 5.32902 5.05363 5.46967C4.91298 5.61032 4.83396 5.80109 4.83396 6C4.83396 6.19891 4.91298 6.38968 5.05363 6.53033C5.19429 6.67098 5.38505 6.75 5.58396 6.75ZM17.584 18H16.834V17.25C16.834 17.0511 16.7549 16.8603 16.6143 16.7197C16.4736 16.579 16.2829 16.5 16.084 16.5C15.8851 16.5 15.6943 16.579 15.5536 16.7197C15.413 16.8603 15.334 17.0511 15.334 17.25V18H14.584C14.3851 18 14.1943 18.079 14.0536 18.2197C13.913 18.3603 13.834 18.5511 13.834 18.75C13.834 18.9489 13.913 19.1397 14.0536 19.2803C14.1943 19.421 14.3851 19.5 14.584 19.5H15.334V20.25C15.334 20.4489 15.413 20.6397 15.5536 20.7803C15.6943 20.921 15.8851 21 16.084 21C16.2829 21 16.4736 20.921 16.6143 20.7803C16.7549 20.6397 16.834 20.4489 16.834 20.25V19.5H17.584C17.7829 19.5 17.9736 19.421 18.1143 19.2803C18.2549 19.1397 18.334 18.9489 18.334 18.75C18.334 18.5511 18.2549 18.3603 18.1143 18.2197C17.9736 18.079 17.7829 18 17.584 18ZM20.8943 7.5L7.83396 20.5603C7.55269 20.8414 7.1713 20.9993 6.77365 20.9993C6.376 20.9993 5.99461 20.8414 5.71334 20.5603L3.77271 18.6216C3.63339 18.4823 3.52287 18.3169 3.44747 18.1349C3.37206 17.9529 3.33325 17.7578 3.33325 17.5608C3.33325 17.3638 3.37206 17.1687 3.44747 16.9867C3.52287 16.8047 3.63339 16.6393 3.77271 16.5L16.834 3.43969C16.9733 3.30036 17.1386 3.18984 17.3206 3.11444C17.5027 3.03904 17.6977 3.00023 17.8947 3.00023C18.0918 3.00023 18.2868 3.03904 18.4688 3.11444C18.6509 3.18984 18.8162 3.30036 18.9555 3.43969L20.8943 5.37844C21.0336 5.51773 21.1441 5.6831 21.2195 5.86511C21.2949 6.04713 21.3337 6.24221 21.3337 6.43922C21.3337 6.63623 21.2949 6.83131 21.2195 7.01332C21.1441 7.19533 21.0336 7.36071 20.8943 7.5ZM19.834 6.43969L17.8943 4.5L14.8943 7.5L16.834 9.43969L19.834 6.43969Z" fill="black"/>
</g>
</svg>
