<svg width="56" height="56" viewBox="0 0 56 56" fill="none" xmlns="http://www.w3.org/2000/svg">
<g id="Frame">
<path id="Vector" d="M52.3753 29.0938L45.3753 11.5938C45.2444 11.2701 45.0197 10.993 44.7301 10.7981C44.4404 10.6032 44.0991 10.4994 43.75 10.5C43.6226 10.5019 43.4957 10.5173 43.3716 10.5459L29.75 13.5625V8.75C29.75 8.28587 29.5656 7.84075 29.2374 7.51256C28.9093 7.18437 28.4641 7 28 7C27.5359 7 27.0908 7.18437 26.7626 7.51256C26.4344 7.84075 26.25 8.28587 26.25 8.75V14.3456L11.8716 17.5459C11.5944 17.6064 11.336 17.7334 11.1188 17.916C10.9016 18.0985 10.732 18.3311 10.6247 18.5938L3.62469 36.0938C3.54095 36.3023 3.4986 36.5252 3.5 36.75C3.5 41.8491 8.86813 43.75 12.25 43.75C15.6319 43.75 21 41.8491 21 36.75C21.0014 36.5252 20.9591 36.3023 20.8753 36.0938L14.6388 20.5122L26.25 17.9375V45.5H22.75C22.2859 45.5 21.8408 45.6844 21.5126 46.0126C21.1844 46.3408 21 46.7859 21 47.25C21 47.7141 21.1844 48.1592 21.5126 48.4874C21.8408 48.8156 22.2859 49 22.75 49H33.25C33.7141 49 34.1593 48.8156 34.4874 48.4874C34.8156 48.1592 35 47.7141 35 47.25C35 46.7859 34.8156 46.3408 34.4874 46.0126C34.1593 45.6844 33.7141 45.5 33.25 45.5H29.75V17.1544L40.9063 14.6781L35.1247 29.0938C35.041 29.3023 34.9986 29.5252 35 29.75C35 34.8491 40.3681 36.75 43.75 36.75C47.1319 36.75 52.5 34.8491 52.5 29.75C52.5014 29.5252 52.4591 29.3023 52.3753 29.0938ZM17.3753 36.75H7.13563L12.25 23.9619L17.3753 36.75ZM38.6466 29.75L43.75 16.9619L48.8644 29.75H38.6466Z" fill="white"/>
</g>
</svg>
