<svg width="67" height="67" viewBox="0 0 67 67" fill="none" xmlns="http://www.w3.org/2000/svg">
<rect width="67" height="67" rx="9" fill="#F3322C"/>
<path d="M16.5662 49.8182C16.7699 51.4632 16.9735 53.1515 16.9735 54.7965C16.9735 55.8788 16.9735 56.9177 16.9735 58H22.7169C22.6354 57.0043 22.5947 56.0519 22.5132 55.0563C22.391 53.4978 22.3096 51.9394 22.1874 50.381C22.0244 48.3896 21.9022 46.4416 21.7393 44.4502C21.6986 43.8442 21.6578 43.1948 21.6171 42.5455C22.1059 42.7619 22.5947 43.0216 23.0428 43.1515C23.3686 43.2381 23.776 43.2381 24.1018 43.1515C24.835 42.9784 25.5682 42.7186 26.3422 42.5887C26.7088 42.5455 27.1161 42.7186 27.5234 42.7619C28.3381 42.8918 29.1528 43.0216 29.9267 43.1515C30.4969 43.2381 31.0265 43.1082 31.5967 42.8052C32.778 42.1558 34.0407 41.5931 35.2627 41.0303C35.4257 40.9437 35.6293 40.9004 35.7108 40.9004C35.3442 42.026 34.8961 43.1515 34.5703 44.3636C34.4481 44.9697 34.4481 45.6623 34.5703 46.355C34.7332 47.3074 35.7515 47.6104 36.3625 46.9177C36.7699 46.4848 37.055 45.9221 37.3401 45.4026C37.7067 44.71 37.9511 43.9307 38.3177 43.2381C38.4399 43.0216 38.6843 42.8485 38.8472 42.632C39.0102 42.8485 39.2546 42.9784 39.336 43.2381C39.7026 44.2338 40.5173 44.7965 41.3727 45.2294C42.0652 45.5758 42.5947 45.1861 42.554 44.3636C42.554 43.974 42.4318 43.6277 42.391 43.2814C42.2688 42.5022 42.5132 42.1558 43.2464 42.1126C43.8167 42.0693 44.387 42.0693 44.9165 42.026C45.0387 42.026 45.1609 42.026 45.2424 41.9394C45.7312 41.5498 46.3014 41.6796 46.831 41.6364C47.4012 41.5931 48.0122 41.5065 48.5417 41.29C49.4786 40.8571 49.6008 39.948 48.9083 39.1255C48.3381 38.4329 47.5642 38.0433 46.7495 37.8268C45.4868 37.4805 44.224 37.2641 42.9206 36.961C42.9206 36.658 43.002 36.2251 43.002 35.7922C43.002 34.7965 42.7576 33.8442 42.1466 33.0649C41.6171 32.3723 41.4949 31.4632 41.3727 30.5974C41.169 28.9524 41.0468 27.3074 40.7617 25.7056C40.558 24.4069 40.1914 24.2338 39.0102 24.5801C37.9919 24.8831 37.1365 25.4459 36.3625 26.1818C34.8147 27.5671 32.9409 28.303 31.0265 28.8658C30.6599 28.9524 30.2525 28.9091 29.8859 28.8658C29.2342 28.7792 28.9491 28.303 29.3564 27.7835C29.9267 26.961 30.4969 26.1818 31.2301 25.5325C32.9002 24.1039 34.611 22.7186 36.4033 21.4632C37.9511 20.3377 39.4582 19.1688 40.8432 17.7835C41.2098 17.3939 41.6578 17.1342 42.1466 17.0043C43.3686 16.658 44.5092 16.1818 45.5275 15.4026C45.9348 15.0996 46.5458 15.0563 47.0754 14.9697C48.501 14.7965 49.9267 14.4935 51.2301 13.8009C52.6151 13.0649 53.6334 12.026 54 10.3377V9.34199C53.7556 8.90909 53.4705 8.4329 53.2261 8H52.7373C51.8411 8.8658 50.7413 9.2987 49.6823 9.7316C48.9898 10.0346 48.2566 10.2944 47.6049 10.684C46.1385 11.5498 44.7128 12.5455 43.2057 13.4113C42.3096 13.9307 41.4949 14.7532 40.3951 14.9264C39.9063 15.013 39.4582 15.1429 39.0102 15.2727C38.4399 15.4459 37.8697 15.5758 37.4216 16.0087C36.3625 17.0043 35.3035 17.9134 34.1629 18.8225C32.8595 19.8615 31.5153 20.8139 29.8859 21.1602C29.1527 21.29 28.664 21.7662 28.1752 22.329C27.9715 22.5887 27.6456 22.7619 27.3605 22.9784C27.0346 23.2381 26.6273 23.4978 26.4644 23.8442C25.446 25.5758 24.224 27.0909 22.7984 28.5195C20.6395 30.6407 18.5214 32.8052 16.4033 34.9697C15.3442 36.0519 14.4481 37.2641 14.2444 38.9091C14.2037 39.3853 14.0815 39.8615 14 40.2944V41.8528C14.2037 42.5455 14.3259 43.3247 14.6925 43.9307C15.7923 45.7489 16.3218 47.7403 16.5662 49.8182ZM34.5703 29.9481C35.0183 29.6883 35.5886 29.5584 36.1181 29.4719C36.6884 29.3853 37.2994 29.342 37.8697 29.342C38.0733 29.342 38.3585 29.4286 38.3992 29.5584C38.6436 30.1212 38.888 30.7273 38.9694 31.3766C39.0916 32.0693 38.725 32.4156 37.8289 32.4156C37.4623 32.3723 36.8921 32.329 36.3625 32.1558C35.7108 31.9394 35.0591 31.6364 34.4481 31.2468C34 30.8139 34.0407 30.2511 34.5703 29.9481ZM27.1161 34.0173C27.89 33.5411 29.0713 34.4502 29.8859 34.1039C30.4969 33.8442 31.1487 33.8442 31.8004 34.1905C31.9633 34.2771 32.2077 34.3203 32.4114 34.3636C33.6741 34.4935 34.9776 34.5801 36.2403 34.7965C37.2179 34.9264 38.2363 35.1429 39.0509 35.8788C39.2953 36.0952 39.5397 36.3117 39.3768 36.658C39.2138 37.0043 39.1731 37.5238 38.6029 37.5671C37.9104 37.6104 37.1772 37.6537 36.1589 37.697C35.6293 37.8268 34.8961 37.6537 34.2037 37.0476C33.6334 36.5714 32.9409 36.658 32.2892 36.9177C31.8411 37.1342 30.5377 37.8701 30.0081 37.9134C28.7861 38.0866 26.9532 38 25.9348 37.4805C25.2016 37.0909 26.4644 34.4069 27.1161 34.0173Z" fill="white"/>
</svg>
