<svg width="24" height="24" viewBox="0 0 24 24" fill="none" xmlns="http://www.w3.org/2000/svg">
<path d="M4.93963 9.31022C4.80031 9.17093 4.68979 9.00555 4.61438 8.82354C4.53898 8.64153 4.50017 8.44645 4.50017 8.24944C4.50017 8.05243 4.53898 7.85735 4.61438 7.67533C4.68979 7.49332 4.80031 7.32795 4.93963 7.18866L10.9396 1.18866C11.221 0.907321 11.6025 0.749268 12.0004 0.749268C12.3983 0.749268 12.7799 0.907321 13.0612 1.18866C13.3425 1.46999 13.5006 1.85157 13.5006 2.24944C13.5006 2.64731 13.3425 3.02888 13.0612 3.31022L7.06119 9.31022C6.9219 9.44954 6.75653 9.56006 6.57452 9.63547C6.39251 9.71087 6.19742 9.74968 6.00041 9.74968C5.8034 9.74968 5.60832 9.71087 5.42631 9.63547C5.2443 9.56006 5.07892 9.44954 4.93963 9.31022ZM22.8112 10.9387C22.6719 10.7993 22.5065 10.6888 22.3245 10.6134C22.1425 10.538 21.9474 10.4992 21.7504 10.4992C21.5534 10.4992 21.3583 10.538 21.1763 10.6134C20.9943 10.6888 20.8289 10.7993 20.6896 10.9387L14.6896 16.9387C14.5503 17.0779 14.4398 17.2433 14.3644 17.4253C14.289 17.6073 14.2502 17.8024 14.2502 17.9994C14.2502 18.1964 14.289 18.3915 14.3644 18.5735C14.4398 18.7556 14.5503 18.9209 14.6896 19.0602C14.8289 19.1995 14.9943 19.3101 15.1763 19.3855C15.3583 19.4609 15.5534 19.4997 15.7504 19.4997C15.9474 19.4997 16.1425 19.4609 16.3245 19.3855C16.5065 19.3101 16.6719 19.1995 16.8112 19.0602L22.8112 13.0602C22.9505 12.9209 23.061 12.7556 23.1364 12.5735C23.2118 12.3915 23.2507 12.1965 23.2507 11.9994C23.2507 11.8024 23.2118 11.6073 23.1364 11.4253C23.061 11.2433 22.9505 11.078 22.8112 10.9387ZM19.5196 9.45741L14.5424 4.48022C14.5076 4.44535 14.4663 4.41769 14.4207 4.39882C14.3752 4.37995 14.3264 4.37024 14.2771 4.37024C14.2279 4.37024 14.1791 4.37995 14.1335 4.39882C14.088 4.41769 14.0466 4.44535 14.0118 4.48022L8.2312 10.2608C8.19633 10.2957 8.16867 10.337 8.1498 10.3826C8.13093 10.4281 8.12121 10.4769 8.12121 10.5262C8.12121 10.5754 8.13093 10.6242 8.1498 10.6698C8.16867 10.7153 8.19633 10.7566 8.2312 10.7915L9.6562 12.2193L2.68963 19.1896C2.4202 19.4732 2.27221 19.8508 2.27722 20.242C2.28223 20.6331 2.43984 21.0068 2.71644 21.2834C2.99304 21.56 3.36675 21.7176 3.7579 21.7226C4.14904 21.7276 4.52666 21.5796 4.81026 21.3102L11.7806 14.3437L13.2084 15.7715C13.2432 15.8063 13.2846 15.834 13.3301 15.8529C13.3756 15.8717 13.4244 15.8815 13.4737 15.8815C13.523 15.8815 13.5718 15.8717 13.6173 15.8529C13.6628 15.834 13.7042 15.8063 13.739 15.7715L19.5196 9.99084C19.5549 9.95597 19.5829 9.91443 19.6021 9.86865C19.6212 9.82287 19.631 9.77374 19.631 9.72413C19.631 9.67451 19.6212 9.62539 19.6021 9.5796C19.5829 9.53382 19.5549 9.49228 19.5196 9.45741Z" fill="#212529"/>
</svg>
