<svg width="24" height="24" viewBox="0 0 24 24" fill="none" xmlns="http://www.w3.org/2000/svg">
<g id="Icon/arrow-up-right">
<path id="Vector" d="M19.125 6V15.75C19.125 16.0484 19.0064 16.3345 18.7955 16.5455C18.5845 16.7565 18.2983 16.875 18 16.875C17.7016 16.875 17.4154 16.7565 17.2045 16.5455C16.9935 16.3345 16.875 16.0484 16.875 15.75V8.71875L6.7959 18.7959C6.58455 19.0073 6.29791 19.126 5.99902 19.126C5.70014 19.126 5.41349 19.0073 5.20215 18.7959C4.9908 18.5846 4.87207 18.2979 4.87207 17.9991C4.87207 17.7002 4.9908 17.4135 5.20215 17.2022L15.2812 7.125H8.24996C7.95159 7.125 7.66544 7.00647 7.45446 6.7955C7.24349 6.58452 7.12496 6.29837 7.12496 6C7.12496 5.70163 7.24349 5.41548 7.45446 5.2045C7.66544 4.99353 7.95159 4.875 8.24996 4.875H18C18.2983 4.875 18.5845 4.99353 18.7955 5.2045C19.0064 5.41548 19.125 5.70163 19.125 6Z" fill="#212529"/>
</g>
</svg>
