<svg width="25" height="24" viewBox="0 0 25 24" fill="none" xmlns="http://www.w3.org/2000/svg">
<path d="M17.9165 8.39719V7.875C17.9165 5.52375 14.3699 3.75 9.6665 3.75C4.96307 3.75 1.4165 5.52375 1.4165 7.875V11.625C1.4165 13.5834 3.87744 15.1397 7.4165 15.6056V16.125C7.4165 18.4762 10.9631 20.25 15.6665 20.25C20.3699 20.25 23.9165 18.4762 23.9165 16.125V12.375C23.9165 10.4344 21.5334 8.87625 17.9165 8.39719ZM5.9165 13.7691C4.07994 13.2562 2.9165 12.4116 2.9165 11.625V10.3059C3.6815 10.8478 4.70619 11.2847 5.9165 11.5781V13.7691ZM13.4165 11.5781C14.6268 11.2847 15.6515 10.8478 16.4165 10.3059V11.625C16.4165 12.4116 15.2531 13.2562 13.4165 13.7691V11.5781ZM11.9165 18.2691C10.0799 17.7562 8.9165 16.9116 8.9165 16.125V15.7341C9.16307 15.7434 9.41244 15.75 9.6665 15.75C10.0303 15.75 10.3856 15.7378 10.7343 15.7172C11.1217 15.8559 11.5164 15.9736 11.9165 16.0697V18.2691ZM11.9165 14.0859C11.1716 14.196 10.4195 14.2508 9.6665 14.25C8.91349 14.2508 8.16144 14.196 7.4165 14.0859V11.8556C8.16255 11.9528 8.91416 12.0011 9.6665 12C10.4189 12.0011 11.1705 11.9528 11.9165 11.8556V14.0859ZM17.9165 18.5859C16.4245 18.8047 14.9085 18.8047 13.4165 18.5859V16.35C14.1623 16.4503 14.914 16.5004 15.6665 16.5C16.4189 16.5011 17.1705 16.4528 17.9165 16.3556V18.5859ZM22.4165 16.125C22.4165 16.9116 21.2531 17.7562 19.4165 18.2691V16.0781C20.6268 15.7847 21.6515 15.3478 22.4165 14.8059V16.125Z" fill="#212529"/>
</svg>
