<svg width="25" height="24" viewBox="0 0 25 24" fill="none" xmlns="http://www.w3.org/2000/svg">
<path d="M22.0542 8.79469L20.7098 4.0875C20.6194 3.77523 20.4304 3.50059 20.171 3.30459C19.9117 3.10858 19.5958 3.00174 19.2708 3H5.39575C5.07066 3.00174 4.75485 3.10858 4.49549 3.30459C4.23612 3.50059 4.04711 3.77523 3.95669 4.0875L2.61231 8.79469C2.5931 8.86143 2.58331 8.93054 2.58325 9V10.5C2.58325 11.0822 2.7188 11.6563 2.97915 12.1771C3.2395 12.6978 3.61752 13.1507 4.08325 13.5V20.25C4.08325 20.4489 4.16227 20.6397 4.30292 20.7803C4.44357 20.921 4.63434 21 4.83325 21H19.8333C20.0322 21 20.2229 20.921 20.3636 20.7803C20.5042 20.6397 20.5833 20.4489 20.5833 20.25V13.5C21.049 13.1507 21.427 12.6978 21.6874 12.1771C21.9477 11.6563 22.0833 11.0822 22.0833 10.5V9C22.0832 8.93054 22.0734 8.86143 22.0542 8.79469ZM8.58325 10.5C8.58312 10.8869 8.48321 11.2673 8.29318 11.6043C8.10315 11.9413 7.82942 12.2236 7.49844 12.424C7.16745 12.6244 6.79038 12.736 6.40366 12.7481C6.01694 12.7602 5.63363 12.6724 5.29075 12.4931C5.23858 12.4525 5.18119 12.4191 5.12013 12.3937C4.80239 12.1903 4.54089 11.9103 4.35971 11.5794C4.17852 11.2484 4.08345 10.8773 4.08325 10.5V9.75H8.58325V10.5ZM14.5833 10.5C14.5833 11.0967 14.3462 11.669 13.9242 12.091C13.5023 12.5129 12.93 12.75 12.3333 12.75C11.7365 12.75 11.1642 12.5129 10.7423 12.091C10.3203 11.669 10.0833 11.0967 10.0833 10.5V9.75H14.5833V10.5ZM20.5833 10.5C20.583 10.8774 20.4877 11.2486 20.3064 11.5795C20.125 11.9104 19.8634 12.1904 19.5454 12.3937C19.4852 12.4191 19.4285 12.4522 19.3767 12.4922C19.0339 12.6716 18.6505 12.7596 18.2638 12.7477C17.877 12.7357 17.4998 12.6242 17.1687 12.424C16.8376 12.2237 16.5638 11.9414 16.3736 11.6044C16.1835 11.2673 16.0835 10.887 16.0833 10.5V9.75H20.5833V10.5Z" fill="#212529"/>
</svg>
