<svg width="24" height="24" viewBox="0 0 24 24" fill="none" xmlns="http://www.w3.org/2000/svg">
<path d="M20.8394 11.5366L12.5894 1.03657C12.5193 0.947271 12.4297 0.875078 12.3276 0.825436C12.2254 0.775794 12.1133 0.75 11.9998 0.75C11.8862 0.75 11.7741 0.775794 11.6719 0.825436C11.5698 0.875078 11.4802 0.947271 11.4101 1.03657L3.16007 11.5366C3.05637 11.6687 3 11.8318 3 11.9997C3 12.1676 3.05637 12.3307 3.16007 12.4628L11.4101 22.9628C11.4802 23.0521 11.5698 23.1243 11.6719 23.174C11.7741 23.2236 11.8862 23.2494 11.9998 23.2494C12.1133 23.2494 12.2254 23.2236 12.3276 23.174C12.4297 23.1243 12.5193 23.0521 12.5894 22.9628L20.8394 12.4628C20.9432 12.3307 20.9995 12.1676 20.9995 11.9997C20.9995 11.8318 20.9432 11.6687 20.8394 11.5366ZM12.7498 14.5853V3.66813L19.0704 11.7119L12.7498 14.5853ZM11.2498 14.5853L4.92913 11.7119L11.2498 3.66813V14.5853ZM11.2498 16.2325V20.3313L6.2407 13.9563L11.2498 16.2325Z" fill="black"/>
</svg>
